<svg viewBox="0 0 40 40" xmlns="http://www.w3.org/2000/svg">
<circle cx="20" cy="20" r="20" fill="#6512D5"/>
<path d="M19.7348 15.1885L13.3336 21.9683V29.2856C13.3336 29.4751 13.3921 29.6568 13.4963 29.7908C13.6005 29.9247 13.7418 30 13.8891 30L17.7798 29.9871C17.9266 29.9861 18.0672 29.9104 18.1708 29.7766C18.2744 29.6427 18.3325 29.4615 18.3325 29.2727V24.9994C18.3325 24.81 18.391 24.6283 18.4952 24.4943C18.5994 24.3603 18.7407 24.2851 18.888 24.2851H21.1101C21.2574 24.2851 21.3987 24.3603 21.5029 24.4943C21.6071 24.6283 21.6656 24.81 21.6656 24.9994V29.2696C21.6654 29.3636 21.6796 29.4567 21.7074 29.5436C21.7352 29.6306 21.7761 29.7096 21.8277 29.7761C21.8793 29.8427 21.9406 29.8955 22.0081 29.9316C22.0756 29.9676 22.148 29.9862 22.2211 29.9862L26.1104 30C26.2577 30 26.399 29.9247 26.5032 29.7908C26.6074 29.6568 26.6659 29.4751 26.6659 29.2856V21.9634L20.266 15.1885C20.1908 15.1105 20.0971 15.068 20.0004 15.068C19.9038 15.068 19.8101 15.1105 19.7348 15.1885V15.1885ZM29.8462 19.7966L26.9437 16.7199V10.5358C26.9437 10.3937 26.8998 10.2574 26.8216 10.1569C26.7435 10.0564 26.6375 10 26.527 10H24.5827C24.4722 10 24.3663 10.0564 24.2881 10.1569C24.21 10.2574 24.1661 10.3937 24.1661 10.5358V13.7777L21.0577 10.4889C20.7594 10.1732 20.385 10.0006 19.9987 10.0006C19.6124 10.0006 19.2381 10.1732 18.9398 10.4889L10.1512 19.7966C10.109 19.8415 10.0741 19.8966 10.0485 19.9588C10.0229 20.021 10.007 20.089 10.0019 20.1591C9.9967 20.2292 10.0023 20.2999 10.0184 20.3671C10.0345 20.4344 10.0608 20.497 10.0957 20.5512L10.981 21.9353C11.0158 21.9897 11.0586 22.0347 11.107 22.0678C11.1553 22.101 11.2083 22.1215 11.2628 22.1282C11.3174 22.135 11.3724 22.1279 11.4248 22.1072C11.4772 22.0866 11.5259 22.0529 11.5681 22.008L19.7348 13.358C19.8101 13.28 19.9038 13.2374 20.0004 13.2374C20.0971 13.2374 20.1908 13.28 20.266 13.358L28.4331 22.008C28.4753 22.0529 28.5239 22.0867 28.5762 22.1074C28.6286 22.1281 28.6835 22.1353 28.738 22.1287C28.7925 22.122 28.8455 22.1016 28.8938 22.0687C28.9422 22.0357 28.985 21.9909 29.0199 21.9366L29.9052 20.5525C29.9401 20.498 29.9662 20.4351 29.9821 20.3675C29.998 20.3 30.0034 20.229 29.9979 20.1588C29.9924 20.0886 29.9762 20.0204 29.9502 19.9582C29.9241 19.8961 29.8888 19.8412 29.8462 19.7966V19.7966Z" fill="white"/>
</svg>