<svg width="40" height="40" viewBox="0 0 40 40" fill="none" xmlns="http://www.w3.org/2000/svg">
<circle cx="20" cy="20" r="20" fill="#6512D5"/>
<path d="M10 28.125C10 29.1602 10.9598 30 12.1429 30H27.8571C29.0402 30 30 29.1602 30 28.125V17.5H10V28.125ZM24.2857 20.4688C24.2857 20.2109 24.5268 20 24.8214 20H26.6071C26.9018 20 27.1429 20.2109 27.1429 20.4688V22.0312C27.1429 22.2891 26.9018 22.5 26.6071 22.5H24.8214C24.5268 22.5 24.2857 22.2891 24.2857 22.0312V20.4688ZM24.2857 25.4688C24.2857 25.2109 24.5268 25 24.8214 25H26.6071C26.9018 25 27.1429 25.2109 27.1429 25.4688V27.0312C27.1429 27.2891 26.9018 27.5 26.6071 27.5H24.8214C24.5268 27.5 24.2857 27.2891 24.2857 27.0312V25.4688ZM18.5714 20.4688C18.5714 20.2109 18.8125 20 19.1071 20H20.8929C21.1875 20 21.4286 20.2109 21.4286 20.4688V22.0312C21.4286 22.2891 21.1875 22.5 20.8929 22.5H19.1071C18.8125 22.5 18.5714 22.2891 18.5714 22.0312V20.4688ZM18.5714 25.4688C18.5714 25.2109 18.8125 25 19.1071 25H20.8929C21.1875 25 21.4286 25.2109 21.4286 25.4688V27.0312C21.4286 27.2891 21.1875 27.5 20.8929 27.5H19.1071C18.8125 27.5 18.5714 27.2891 18.5714 27.0312V25.4688ZM12.8571 20.4688C12.8571 20.2109 13.0982 20 13.3929 20H15.1786C15.4732 20 15.7143 20.2109 15.7143 20.4688V22.0312C15.7143 22.2891 15.4732 22.5 15.1786 22.5H13.3929C13.0982 22.5 12.8571 22.2891 12.8571 22.0312V20.4688ZM12.8571 25.4688C12.8571 25.2109 13.0982 25 13.3929 25H15.1786C15.4732 25 15.7143 25.2109 15.7143 25.4688V27.0312C15.7143 27.2891 15.4732 27.5 15.1786 27.5H13.3929C13.0982 27.5 12.8571 27.2891 12.8571 27.0312V25.4688ZM27.8571 12.5H25.7143V10.625C25.7143 10.2812 25.3929 10 25 10H23.5714C23.1786 10 22.8571 10.2812 22.8571 10.625V12.5H17.1429V10.625C17.1429 10.2812 16.8214 10 16.4286 10H15C14.6071 10 14.2857 10.2812 14.2857 10.625V12.5H12.1429C10.9598 12.5 10 13.3398 10 14.375V16.25H30V14.375C30 13.3398 29.0402 12.5 27.8571 12.5Z" fill="white"/>
</svg>