<svg width="40" height="40" viewBox="0 0 40 40" fill="none" xmlns="http://www.w3.org/2000/svg">
<circle cx="20" cy="20" r="20" fill="#6512D5"/>
<path d="M15.5556 28.25C14.6667 28.25 13.7778 27.2875 13.3333 26.875C11.1111 24.95 10.4444 24.2625 10 23.85V29.625C10 30.3843 10.4976 31 11.1111 31H20C20.6135 31 21.1111 30.3843 21.1111 29.625V23.85C20.6667 24.2625 20 24.95 17.7778 26.875C17.3333 27.2875 16.4444 28.25 15.5556 28.25ZM20 20H11.1111C10.4976 20 10 20.6157 10 21.375V22.0625C10.8889 22.8875 10.7778 22.8875 14 25.775C14.3333 26.05 15 26.875 15.5556 26.875C16.1111 26.875 16.7778 26.05 17.1111 25.9125C20.3333 23.025 20.2222 23.025 21.1111 22.2V21.375C21.1111 20.6157 20.6135 20 20 20ZM28.8889 15.875H17.7778C17.1642 15.875 16.6667 16.4907 16.6667 17.25V18.625H20C21.1531 18.625 22.1038 19.7173 22.2122 21.1095L22.2222 21.1V26.875H28.8889C29.5024 26.875 30 26.2593 30 25.5V17.25C30 16.4907 29.5024 15.875 28.8889 15.875ZM27.7778 21.375H25.5556V18.625H27.7778V21.375ZM15.5556 17.25C15.5556 15.7336 16.5524 14.5 17.7778 14.5H25.5556V10.375C25.5556 9.61574 25.058 9 24.4444 9H13.3333C12.7198 9 12.2222 9.61574 12.2222 10.375V18.625H15.5556V17.25Z" fill="white"/>
</svg>
