<svg viewBox="0 0 40 40" xmlns="http://www.w3.org/2000/svg">
<circle cx="20" cy="20" r="20" fill="#6512D5"/>
<path d="M16.3585 27.2531C16.3585 27.3469 16.2565 27.4219 16.1278 27.4219C15.9815 27.4359 15.8794 27.3609 15.8794 27.2531C15.8794 27.1594 15.9815 27.0844 16.1101 27.0844C16.2431 27.0703 16.3585 27.1453 16.3585 27.2531ZM14.979 27.0422C14.948 27.1359 15.0367 27.2437 15.1698 27.2719C15.2851 27.3187 15.4181 27.2719 15.4448 27.1781C15.4714 27.0844 15.3871 26.9766 15.254 26.9344C15.1387 26.9016 15.0101 26.9484 14.979 27.0422ZM16.9395 26.9625C16.8109 26.9953 16.7222 27.0844 16.7355 27.1922C16.7488 27.2859 16.8641 27.3469 16.9972 27.3141C17.1258 27.2813 17.2145 27.1922 17.2012 27.0984C17.1879 27.0094 17.0681 26.9484 16.9395 26.9625ZM19.8581 9C13.706 9 9 13.9359 9 20.4375C9 25.6359 12.096 30.0844 16.5181 31.65C17.0859 31.7578 17.2855 31.3875 17.2855 31.0828C17.2855 30.7922 17.2722 29.1891 17.2722 28.2047C17.2722 28.2047 14.1673 28.9078 13.5153 26.8078C13.5153 26.8078 13.0097 25.4437 12.2823 25.0922C12.2823 25.0922 11.2665 24.3562 12.3532 24.3703C12.3532 24.3703 13.4577 24.4641 14.0653 25.5797C15.0367 27.3891 16.6645 26.8688 17.2988 26.5594C17.4008 25.8094 17.6891 25.2891 18.0085 24.9797C15.529 24.6891 13.0274 24.3094 13.0274 19.8C13.0274 18.5109 13.3645 17.8641 14.0742 17.0391C13.9589 16.7344 13.5819 15.4781 14.1895 13.8562C15.1165 13.5516 17.25 15.1219 17.25 15.1219C18.1371 14.8594 19.0907 14.7234 20.0355 14.7234C20.9802 14.7234 21.9339 14.8594 22.821 15.1219C22.821 15.1219 24.9544 13.5469 25.8815 13.8562C26.4891 15.4828 26.1121 16.7344 25.9968 17.0391C26.7065 17.8688 27.1411 18.5156 27.1411 19.8C27.1411 24.3234 24.5286 24.6844 22.0492 24.9797C22.4573 25.35 22.8032 26.0531 22.8032 27.1547C22.8032 28.7344 22.7899 30.6891 22.7899 31.0734C22.7899 31.3781 22.994 31.7484 23.5573 31.6406C27.9927 30.0844 31 25.6359 31 20.4375C31 13.9359 26.0101 9 19.8581 9ZM13.3113 25.1672C13.2536 25.2141 13.2669 25.3219 13.3423 25.4109C13.4133 25.4859 13.5153 25.5188 13.573 25.4578C13.6306 25.4109 13.6173 25.3031 13.5419 25.2141C13.471 25.1391 13.369 25.1062 13.3113 25.1672ZM12.8323 24.7875C12.8012 24.8484 12.8456 24.9234 12.9343 24.9703C13.0052 25.0172 13.094 25.0031 13.125 24.9375C13.156 24.8766 13.1117 24.8016 13.023 24.7547C12.9343 24.7266 12.8633 24.7406 12.8323 24.7875ZM14.2694 26.4562C14.1984 26.5172 14.225 26.6578 14.327 26.7469C14.429 26.8547 14.5577 26.8688 14.6153 26.7938C14.673 26.7328 14.6464 26.5922 14.5577 26.5031C14.4601 26.3953 14.327 26.3812 14.2694 26.4562ZM13.7637 25.7672C13.6927 25.8141 13.6927 25.9359 13.7637 26.0438C13.8347 26.1516 13.9544 26.1984 14.0121 26.1516C14.0831 26.0906 14.0831 25.9688 14.0121 25.8609C13.95 25.7531 13.8347 25.7063 13.7637 25.7672Z" fill="white"/>
</svg>