<svg viewBox="0 0 40 40" xmlns="http://www.w3.org/2000/svg" id="toogle_theme">
    <circle cx="20" cy="20" r="20" fill="#6512D5"/>
    <path d="M15.9122 29.2972C15.9127 29.5921 16.0078 29.8808 16.1862 30.1264L17.0602 31.3306C17.2095 31.5365 17.412 31.7053 17.6496 31.8221C17.8873 31.9389 18.1528 32 18.4224 32H21.5781C21.8477 32 22.1132 31.9389 22.3509 31.8221C22.5886 31.7053 22.7911 31.5365 22.9403 31.3306L23.8143 30.1264C23.9926 29.8808 24.088 29.5923 24.0884 29.2972L24.0904 27.4996H15.9096L15.9122 29.2972ZM11 16.2499C11 18.3297 11.8412 20.2271 13.2275 21.6769C14.0723 22.5605 15.3936 24.4064 15.8973 25.9636C15.8994 25.9758 15.9009 25.9879 15.903 26.0001H24.097C24.0991 25.9879 24.1006 25.9762 24.1027 25.9636C24.6064 24.4064 25.9277 22.5605 26.7725 21.6769C28.1588 20.2271 29 18.3297 29 16.2499C29 11.6848 24.9556 7.98598 19.9719 8.00004C14.7555 8.01457 11 11.8892 11 16.2499ZM20 12.4999C17.7444 12.4999 15.9091 14.1823 15.9091 16.2499C15.9091 16.6642 15.543 16.9998 15.0909 16.9998C14.6389 16.9998 14.2727 16.6642 14.2727 16.2499C14.2727 13.3549 16.8418 11 20 11C20.452 11 20.8182 11.3356 20.8182 11.75C20.8182 12.1643 20.452 12.4999 20 12.4999Z" fill="white"/>
</svg>