<svg width="40" height="40" viewBox="0 0 40 40" fill="none" xmlns="http://www.w3.org/2000/svg">
<circle cx="20" cy="20" r="20" fill="#6512D5"/>
<path d="M29.1667 9H10.8333C9.82118 9 9 10.0078 9 11.25V27.75C9 28.9922 9.82118 30 10.8333 30H29.1667C30.1788 30 31 28.9922 31 27.75V11.25C31 10.0078 30.1788 9 29.1667 9ZM15.7222 13.5C17.0705 13.5 18.1667 14.8453 18.1667 16.5C18.1667 18.1547 17.0705 19.5 15.7222 19.5C14.374 19.5 13.2778 18.1547 13.2778 16.5C13.2778 14.8453 14.374 13.5 15.7222 13.5ZM20 24.6C20 25.0969 19.6181 25.5 19.1444 25.5H12.3C11.8264 25.5 11.4444 25.0969 11.4444 24.6V23.7C11.4444 22.2094 12.5941 21 14.0111 21H14.2021C14.6719 21.2391 15.1837 21.375 15.7222 21.375C16.2608 21.375 16.7764 21.2391 17.2424 21H17.4333C18.8503 21 20 22.2094 20 23.7V24.6ZM28.5556 22.125C28.5556 22.3313 28.4181 22.5 28.25 22.5H22.75C22.5819 22.5 22.4444 22.3313 22.4444 22.125V21.375C22.4444 21.1687 22.5819 21 22.75 21H28.25C28.4181 21 28.5556 21.1687 28.5556 21.375V22.125ZM28.5556 19.125C28.5556 19.3313 28.4181 19.5 28.25 19.5H22.75C22.5819 19.5 22.4444 19.3313 22.4444 19.125V18.375C22.4444 18.1687 22.5819 18 22.75 18H28.25C28.4181 18 28.5556 18.1687 28.5556 18.375V19.125ZM28.5556 16.125C28.5556 16.3313 28.4181 16.5 28.25 16.5H22.75C22.5819 16.5 22.4444 16.3313 22.4444 16.125V15.375C22.4444 15.1687 22.5819 15 22.75 15H28.25C28.4181 15 28.5556 15.1687 28.5556 15.375V16.125Z" fill="white"/>
</svg>