<svg viewBox="0 0 40 40" xmlns="http://www.w3.org/2000/svg">
<circle cx="20" cy="20" r="20" fill="#6512D5"/>
<path d="M29.9425 29.2735L30.9738 25.211C31.0855 24.7696 30.832 24.3165 30.3765 24.1368L25.5641 22.2619C25.143 22.0978 24.6489 22.2072 24.361 22.5314V22.5314C23.0863 23.9473 21.0131 24.4461 19.4415 23.3693C18.3132 22.5963 17.2957 21.6856 16.4245 20.6633C15.2101 19.2383 15.7177 17.157 17.2197 16.0393V16.0393C17.5764 15.7737 17.6967 15.3284 17.5162 14.9456L15.4538 10.5707C15.2518 10.1527 14.7534 9.92228 14.2679 10.0238L9.7992 10.9613C9.33515 11.059 9 11.434 9 11.8754C9 21.8791 17.9158 30 28.9371 30C29.4183 30 29.8351 29.6992 29.9425 29.2735Z" fill="white"/>
</svg>