<svg viewBox="0 0 40 40" xmlns="http://www.w3.org/2000/svg">
    <circle cx="20" cy="20" r="20" fill="#6512D5"/>
    <path d="M20 21.5C23.1055 21.5 25.625 18.4766 25.625 14.75C25.625 11.0234 23.1055 8 20 8C16.8945 8 14.375 11.0234 14.375 14.75C14.375 18.4766 16.8945 21.5 20 21.5ZM25 23H22.8477C21.9805 23.4781 21.0156 23.75 20 23.75C18.9844 23.75 18.0234 23.4781 17.1523 23H15C12.2383 23 10 25.6859 10 29V29.75C10 30.9922 10.8398 32 11.875 32H28.125C29.1602 32 30 30.9922 30 29.75V29C30 25.6859 27.7617 23 25 23Z" fill="white"/>
</svg>   